<svg class="svg-icon" style="width: 1em; height: 1em;vertical-align: middle;fill: currentColor;overflow: hidden;" viewBox="0 0 1024 1024" version="1.1" xmlns="http://www.w3.org/2000/svg"><path d="M635.882496 934.139904C406.065152 934.139904 219.092992 744.753152 219.092992 511.978496 219.092992 279.202816 406.065152 89.833472 635.882496 89.833472 688.43008 89.833472 739.864576 99.736576 788.757504 119.264256 798.143488 123.024384 804.473856 132.043776 804.888576 142.27456 805.285888 152.505344 799.68768 162.01216 790.617088 166.513664 659.37408 231.692288 577.837056 364.069888 577.837056 511.978496 577.837056 659.877888 659.37408 792.255488 790.617088 857.459712 799.705088 861.969408 805.285888 871.477248 804.888576 881.707008 804.473856 891.938816 798.143488 900.957184 788.757504 904.710144 739.864576 924.246016 688.43008 934.139904 635.882496 934.139904Z"  /></svg>